<svg width="98" height="83" viewBox="0 0 98 83" fill="none" xmlns="http://www.w3.org/2000/svg">
<circle cx="42.7125" cy="20.1016" r="12.8314" transform="rotate(-15.5 42.7125 20.1016)" stroke="#595959" stroke-width="7"/>
<rect x="33.7809" y="29.9995" width="8.31415" height="48.6972" transform="rotate(14 33.7809 29.9995)" fill="#595959"/>
<rect x="34.3757" y="3.22009" width="6.92642" height="9.05873" rx="2.9" transform="rotate(-12 34.3757 3.22009)" fill="#5B0101" stroke="black" stroke-width="0.2"/>
<rect x="26.6762" y="11.003" width="6.92642" height="9.05873" rx="2.9" transform="rotate(-54.5 26.6762 11.003)" fill="#5B0101" stroke="black" stroke-width="0.2"/>
<rect x="28.4592" y="6.84875" width="6.92642" height="52.3313" rx="2.9" transform="rotate(-40 28.4592 6.84875)" fill="#740000" stroke="black" stroke-width="0.2"/>
<path d="M64.5443 75.3005V45.0132H90.6745" stroke="#797979" stroke-width="14" stroke-linecap="round"/>
<path d="M30.3942 73.5424L37.5044 72.5546C39.7802 72.2384 41.9304 73.6817 42.5 75.9075H16C18.1666 73.4883 21.457 72.4049 24.6371 73.0637L26.2921 73.4065C27.6416 73.6861 29.0291 73.7321 30.3942 73.5424Z" stroke="#7A4C04" stroke-width="14"/>
</svg>
