<svg width="13750" height="6875" viewBox="0 0 13750 6875" fill="none" xmlns="http://www.w3.org/2000/svg">
<circle cx="5465.5" cy="3128.5" r="81.5" fill="#FFB800" stroke="black" stroke-width="20"/>
<circle cx="6960.5" cy="5371.5" r="81.5" fill="white" stroke="black" stroke-width="20"/>
<circle cx="12517" cy="4897" r="43" fill="#FFB800" stroke="black" stroke-width="20"/>
<circle cx="10027" cy="5784" r="168" fill="white" stroke="black" stroke-width="20"/>
<circle cx="503" cy="3978" r="168" fill="white" stroke="black" stroke-width="20"/>
<circle cx="11709" cy="618" r="168" fill="white" stroke="black" stroke-width="20"/>
<circle cx="6727" cy="1533" r="132" fill="white" stroke="black" stroke-width="20"/>
<circle cx="1495.5" cy="6546.5" r="81.5" fill="#FFB800" stroke="black" stroke-width="20"/>
<circle cx="9981.5" cy="2485.5" r="35.5" fill="white" stroke="black" stroke-width="20"/>
<circle cx="2736.5" cy="3437.5" r="35.5" fill="#FFB800" stroke="black" stroke-width="20"/>
<circle cx="2495" cy="969" r="163" fill="white" stroke="black" stroke-width="20"/>
<circle cx="8696.5" cy="4340.5" r="81.5" fill="white" stroke="black" stroke-width="20"/>
<circle cx="3542.28" cy="5534.28" r="43" transform="rotate(63 3542.28 5534.28)" fill="white" stroke="black" stroke-width="20"/>
<circle cx="4814.28" cy="6101.28" r="43" transform="rotate(63 4814.28 6101.28)" fill="white" stroke="black" stroke-width="20"/>
<circle cx="13213.8" cy="2705.8" r="87.6751" transform="rotate(115 13213.8 2705.8)" fill="white" stroke="black" stroke-width="20"/>
<circle cx="4317.6" cy="1390.6" r="81.5" transform="rotate(115 4317.6 1390.6)" fill="white" stroke="black" stroke-width="20"/>
</svg>
